<svg width="24" height="25" viewBox="0 0 24 25" fill="none" xmlns="http://www.w3.org/2000/svg">
<circle cx="17" cy="9.5" r="3" fill="#262626"/>
<circle cx="7" cy="9.5" r="3" fill="#262626"/>
<path d="M17.001 13.5C19.4488 13.5001 20.4296 15.9456 20.7979 17.416C20.9416 17.9899 20.4871 18.5 19.8955 18.5H17.5693C17.1663 16.9903 16.3865 15.278 14.8789 14.2998C15.421 13.821 16.1147 13.5 17.001 13.5Z" fill="#262626"/>
<path d="M6.99946 13.5C7.88508 13.5001 8.57765 13.8214 9.11957 14.2998C7.61263 15.2782 6.83309 16.9906 6.43012 18.5H4.10395C3.51234 18.5 3.05886 17.9899 3.20258 17.416C3.57086 15.9456 4.55167 13.5 6.99946 13.5Z" fill="#262626"/>
<circle cx="12" cy="9.5" r="4" fill="#FFC117"/>
<path d="M12 14.5C15.7087 14.5 16.6665 17.801 16.9139 19.5061C16.9932 20.0526 16.5523 20.5 16 20.5H8C7.44772 20.5 7.00684 20.0526 7.08614 19.5061C7.33351 17.801 8.29134 14.5 12 14.5Z" fill="#FFC117"/>
</svg>
